PathFileType	4	(X/Y/Z)	C:\Users\°ÂÌØÂü\Desktop\20210112\bx_n_0_901-Unnamed.trc
DataRate	CameraRate	NumFrames	NumMarkers	Units	OrigDataRate	OrigDataStartFrame	OrigNumFrames
50.00	50.00	       4	0	mm	50.00	186	       370
Frame#	Time	
		

186	3.700	-310.80817	-79.64690	1007.02533	-727.00543	67.12846	219.64995	-724.60425	-10.02535	802.29504	-719.29816	210.59331	793.99121	-823.63739	284.52515	872.30560							-803.31616	275.96768	735.85651	-819.89783	254.39548	628.30560	-776.65930	72.38742	568.77856				-735.98083	15.28822	525.13721	-797.81079	244.47658	569.68787	-741.85272	197.21713	537.83691	-821.38641	259.53519	491.49707				-647.08435	-66.66024	162.02220	-721.71503	151.42801	219.78085	-766.91333	229.45775	204.45248	-605.68433	-71.90469	156.77654	-882.56708	296.04025	144.71681	-675.78357	52.18072	161.16556	-600.74945	30.57149	166.20213	-549.41193	-21.38777	162.10567	-517.79498	-72.90541	143.13284	-590.27600	205.24622	172.16580	-651.08484	289.28616	158.89702	-614.01361	294.62485	160.28799	-553.53516	240.38824	164.51633	-528.16498	303.71173	146.47008	-21.32597	116.54778	1076.87000	-796.75879	183.09334	182.75916	-322.23486	271.44556	1025.43359	-794.83105	35.24191	173.99980	-862.68634	85.11269	1116.71826	-818.66046	-49.38444	478.39856	-762.83331	-22.85479	204.72501	-876.06061	-78.81501	141.32260	-772.74689	137.58302	571.99921	-808.20520	-72.84576	747.91492	-794.27313	-38.32816	610.04138	-793.15326	-35.24086	563.76593	-675.96948	167.54716	160.70313	-812.11591	-80.53691	864.64813	
187	3.720	-310.93158	-79.40311	1006.23157	-727.13934	67.30610	219.65956	-724.56348	-9.99604	802.63641	-719.13470	211.19516	794.08356	-823.63739	284.52515	872.30560							-803.62488	276.01892	735.60040	-820.07025	254.71147	628.23975	-776.61847	72.66956	568.80963				-736.10791	15.53390	525.57263	-798.09460	244.94478	569.76160	-741.90033	197.65288	537.71906	-821.41779	259.90396	491.20264				-647.06470	-66.60297	162.07449	-721.66156	151.59221	219.54912	-766.77142	229.85295	204.24657	-605.68433	-71.90469	156.77654	-882.70435	296.04880	144.58080	-675.60028	52.00423	161.17062	-600.82758	30.73878	166.03069	-549.62317	-21.47956	161.98174	-517.99530	-72.92086	143.19157	-590.28229	205.18488	172.09903	-651.00830	289.27408	158.77313	-614.01361	294.62485	160.28799	-553.43329	240.47348	164.57826	-528.15057	304.00278	146.37822	-21.58761	116.86907	1075.80347	-796.69519	183.28912	182.56282	-322.33456	271.84308	1024.92297	-794.65112	35.43719	174.00853	-862.42133	85.54964	1116.74780	-818.64703	-49.19636	478.60349	-762.71710	-22.46964	204.87469	-875.85034	-78.68372	141.27127	-772.81573	137.63312	572.10339	-808.16852	-72.27487	747.97638	-794.30298	-37.75205	610.21838	-793.02722	-35.06165	563.83295	-676.83093	168.42227	160.04939	-811.99164	-80.30998	864.76221	
188	3.740	-311.29187	-78.92336	1005.74377	-727.13934	67.30610	219.65956	-724.14697	-9.49756	802.89478	-719.37866	211.41528	793.91187	-823.57318	284.69150	872.14789							-803.75592	276.59250	735.73792	-820.40295	255.19273	628.49957	-776.37921	72.74218	568.79517				-735.61517	15.73803	525.88220	-798.27509	245.09657	569.65887	-741.96021	197.63998	537.77753	-821.52832	259.99887	490.97971				-647.20978	-66.51961	162.01944	-721.52936	151.58084	219.96094	-766.69647	229.76126	204.26250	-605.69482	-71.84884	156.81346	-882.42786	295.95294	144.60680	-675.72699	52.06680	161.22411	-600.88654	30.80659	165.97556	-549.52100	-21.32957	162.07314	-517.79498	-72.90541	143.13284	-590.24591	205.06819	172.17786	-651.00830	289.27408	158.77313	-613.93121	294.62561	160.30438	-553.37262	240.43796	164.51781	-528.06720	303.83994	146.44696	-21.30935	117.32414	1074.85449	-796.83691	183.19580	182.72537	-322.38617	272.01941	1024.37793	-795.19531	35.99479	174.28017	-862.29852	85.81199	1116.90515	-818.57996	-48.76333	478.80020	-762.60858	-22.55832	204.86859	-875.93073	-78.79627	141.25227	-772.54358	137.82939	572.09845	-807.98987	-71.55835	748.20239	-794.15845	-37.40981	610.41693	-792.81372	-34.83152	563.78162	-676.21625	167.75491	160.46587	-811.71277	-80.23619	865.01923	
189	3.760	-311.29187	-78.92336	1005.74377	-727.19830	67.62463	219.65932	-724.22534	-9.37400	802.87781	-719.45874	211.91620	793.91516	-823.70697	284.94168	872.18585							-803.94012	277.62384	735.69244	-820.57867	255.61949	628.35217	-776.59930	72.92835	568.89594				-735.61316	15.97559	525.70331	-798.17786	245.15710	569.68945	-742.15833	198.06760	537.71698	-821.52832	259.99887	490.97971				-647.12714	-66.33134	162.04770	-721.80927	151.63409	220.14478	-766.94427	229.95065	204.30783	-605.71185	-71.74641	156.68617	-882.62878	296.10672	144.68527	-675.44141	52.19258	161.35828	-600.92651	30.88354	165.82945	-549.59534	-21.53995	162.04549	-517.91980	-73.01032	143.17534	-590.21259	205.15054	172.12758	-651.00830	289.27408	158.77313	-613.92334	294.73883	160.22165	-553.38245	240.39027	164.46048	-528.16547	303.86270	146.27588	-21.19951	117.84283	1074.21582	-796.77930	183.26779	182.51637	-322.12555	272.27820	1024.27905	-794.67517	35.40012	173.93416	-862.11340	86.42530	1116.98108	-818.56427	-48.71768	478.67068	-762.59448	-22.40756	205.09654	-875.85034	-78.68372	141.27127	-773.10138	138.15210	572.15143	-807.86169	-71.13758	748.02606	-793.87683	-37.20649	610.24500	-792.64911	-34.71574	563.92487	-676.18756	167.89229	160.58093	-811.40265	-79.91460	865.27374	
